<svg width="15" height="15" viewBox="0 0 15 15" fill="none" xmlns="http://www.w3.org/2000/svg">
<path d="M8.53665 7.16362C10.5116 7.16362 12.1182 5.55681 12.1182 3.58181C12.1182 1.60681 10.5116 0 8.53665 0C6.56164 0 4.95483 1.60681 4.95483 3.58181C4.95483 5.55681 6.56164 7.16362 8.53665 7.16362ZM8.11246 1.47644V1.37916C8.11246 1.14473 8.30221 0.95498 8.53665 0.95498C8.77079 0.95498 8.96083 1.14473 8.96083 1.37916V1.47701C9.46561 1.58532 9.84539 2.03495 9.84539 2.57169C9.84539 2.80584 9.65536 2.99587 9.42121 2.99587C9.18678 2.99587 8.99703 2.80584 8.99703 2.57169C8.99703 2.42209 8.87514 2.30021 8.72555 2.30021H8.3452C8.1956 2.30021 8.07372 2.42209 8.07372 2.57169C8.07372 2.65737 8.11472 2.73882 8.18372 2.78972L8.53665 3.05102L9.39406 3.68559C9.67572 3.89401 9.84539 4.22742 9.84766 4.57808V4.58204C9.84964 4.88123 9.73511 5.16345 9.52471 5.37639C9.36861 5.53447 9.17349 5.64052 8.96083 5.6852V5.78446C8.96083 6.01889 8.77079 6.20864 8.53665 6.20864C8.30221 6.20864 8.11246 6.01889 8.11246 5.78446V5.68661C7.90546 5.6425 7.71514 5.54069 7.5613 5.38855C7.34836 5.17844 7.23016 4.89791 7.22846 4.59872C7.22705 4.36457 7.41567 4.17341 7.64982 4.17199H7.65264C7.88566 4.17199 8.07542 4.36033 8.07683 4.59363C8.07739 4.74003 8.19518 4.86341 8.34972 4.86341C8.5841 4.862 8.4968 4.86251 8.72951 4.86115C8.88006 4.85996 9.00045 4.73777 8.99929 4.58769V4.58373C8.99872 4.4989 8.95772 4.41802 8.88928 4.3674L8.53665 4.10639L7.67895 3.47181C7.39502 3.26141 7.22535 2.92489 7.22535 2.57169C7.22535 2.03382 7.60627 1.5839 8.11246 1.47644V1.47644Z" fill="#439F90"/>
<path d="M2.73287 9.20172C2.62414 9.01322 2.38261 8.94764 2.19294 9.05705L0.197636 10.2088C0.00870463 10.3182 -0.0561107 10.5598 0.0529612 10.749L2.09227 14.2811C2.20143 14.47 2.44293 14.5349 2.6322 14.4258L4.6275 13.2737C4.81672 13.1646 4.88128 12.923 4.77218 12.7338L2.73287 9.20172Z" fill="#439F90"/>
<path d="M14.1662 8.49666C13.9742 8.22999 13.6026 8.16976 13.3362 8.36177C12.528 8.94404 10.976 10.0622 10.8527 10.1513C10.7959 10.1996 10.7362 10.2435 10.674 10.2822C10.43 10.4357 10.1469 10.5178 9.85139 10.5178H7.81955C7.5854 10.5178 7.39536 10.328 7.39536 10.0936C7.39536 9.85886 7.58568 9.66939 7.81955 9.66939H9.9925C10.3118 9.66939 10.5674 9.40357 10.5541 9.08373C10.5417 8.7803 10.2826 8.54502 9.97893 8.54502H8.32489C8.21291 8.42653 8.09018 8.31794 7.95868 8.22094C7.5065 7.88753 6.94771 7.69043 6.34282 7.69043C5.26737 7.69043 4.1973 8.36799 3.7536 9.27235L5.4888 12.2776H8.7437C9.38281 12.2776 10.0123 12.1141 10.5663 11.7954C10.7583 11.6851 10.9639 11.5525 11.1867 11.3924C12.1205 10.7216 14.0296 9.32806 14.031 9.32721C14.298 9.13548 14.3585 8.76333 14.1662 8.49666V8.49666Z" fill="#439F90"/>
</svg>
